<?xml version="1.0" encoding="UTF-8"?>
<svg version="1.1" xmlns="http://www.w3.org/2000/svg" width="500" height="500">
<path d="M0 0 C2.96063838 2.72617789 5.03629559 5.73658211 7.140625 9.12890625 C7.5221875 9.71994141 7.90375 10.31097656 8.296875 10.91992188 C12.6106192 17.74010021 16.42918316 24.94925203 15.015625 33.25390625 C11.76071204 39.89935354 6.67066083 45.42622645 -0.359375 48.00390625 C-7.78309034 49.09562909 -12.79290348 47.22930207 -19.484375 44.31640625 C-22.3024196 42.9997978 -22.3024196 42.9997978 -24.203125 44.09375 C-24.7909375 44.47660156 -25.37875 44.85945313 -25.984375 45.25390625 C-28.56931879 46.92618348 -29.27216997 47.31640625 -32.484375 47.31640625 C-32.40920654 47.96342499 -32.33403809 48.61044373 -32.2565918 49.27706909 C-31.47666037 55.99233465 -30.69831301 62.70778245 -29.92089844 69.42333984 C-29.63029214 71.93185084 -29.33927766 74.44031458 -29.04785156 76.94873047 C-28.62979327 80.54772894 -28.21318812 84.14689304 -27.796875 87.74609375 C-27.66563232 88.8732077 -27.53438965 90.00032166 -27.39916992 91.16159058 C-27.27904541 92.20251862 -27.1589209 93.24344666 -27.03515625 94.31591797 C-26.92856689 95.23525116 -26.82197754 96.15458435 -26.7121582 97.10177612 C-26.484375 99.31640625 -26.484375 99.31640625 -26.484375 101.31640625 C-25.69933594 100.97867188 -24.91429688 100.6409375 -24.10546875 100.29296875 C-23.05488281 99.84695312 -22.00429687 99.4009375 -20.921875 98.94140625 C-19.88933594 98.50054687 -18.85679688 98.0596875 -17.79296875 97.60546875 C-6.26389241 93.11362083 5.66506159 92.41404869 17.18359375 97.1484375 C19.71248572 98.41500148 22.11235485 99.82663488 24.515625 101.31640625 C25.27875 100.30578125 26.041875 99.29515625 26.828125 98.25390625 C34.80177783 89.05067145 46.26380078 84.07519468 58.25390625 82.97265625 C71.46645989 82.64875299 84.55466052 85.65467644 95.515625 93.31640625 C96.47265625 95.98046875 96.47265625 95.98046875 96.515625 98.31640625 C96.185625 98.64640625 95.855625 98.97640625 95.515625 99.31640625 C90.27573463 98.89616442 86.15001021 97.4921252 81.390625 95.31640625 C71.73098615 90.91989666 61.02008579 89.57926255 50.5625 92 C42.56646581 95.02994377 35.67341287 99.4817591 30.515625 106.31640625 C31.64022171 108.08749573 32.76531703 109.85826861 33.890625 111.62890625 C34.51710937 112.61503906 35.14359375 113.60117188 35.7890625 114.6171875 C37.01214113 116.52928554 38.2565606 118.42780965 39.515625 120.31640625 C39.140625 123.00390625 39.140625 123.00390625 38.515625 125.31640625 C37.525625 125.64640625 36.535625 125.97640625 35.515625 126.31640625 C32.45291511 123.42986994 30.12365601 120.41998919 27.765625 116.94140625 C22.62831648 109.80625553 16.36938556 104.072644 7.515625 102.31640625 C-1.91127415 101.3829358 -9.80061581 102.60032505 -18.484375 106.31640625 C-19.19722656 106.60515625 -19.91007812 106.89390625 -20.64453125 107.19140625 C-25.17518005 109.34610971 -26.49963723 111.9303131 -28.39453125 116.28125 C-30.76279939 120.70371488 -34.62624724 123.6557386 -39.296875 125.31640625 C-40.01875 125.31640625 -40.740625 125.31640625 -41.484375 125.31640625 C-42.474375 124.32640625 -42.474375 124.32640625 -43.484375 123.31640625 C-43.36328125 121.37109375 -43.36328125 121.37109375 -42.484375 119.31640625 C-40.63671875 117.88671875 -40.63671875 117.88671875 -38.421875 116.44140625 C-35.96551507 114.30608068 -34.63259364 113.05691905 -33.9855957 109.82446289 C-34.22075872 95.42159666 -36.38143122 81.11354409 -38.22265625 66.8449707 C-38.68817348 63.20859042 -39.12725595 59.56979713 -39.5625 55.9296875 C-39.71438782 54.80790604 -39.86627563 53.68612457 -40.02276611 52.53034973 C-40.14319275 51.4946434 -40.26361938 50.45893707 -40.38769531 49.3918457 C-40.56090302 48.02622246 -40.56090302 48.02622246 -40.73760986 46.63301086 C-40.484375 44.31640625 -40.484375 44.31640625 -38.64715576 42.5677948 C-36.27413321 41.19476 -33.93125515 40.20204714 -31.359375 39.25390625 C-27.56547735 37.86266185 -27.56547735 37.86266185 -24.484375 35.31640625 C-20.37354446 35.47761529 -17.41767831 36.20112244 -13.984375 38.37890625 C-10.38113028 40.58760659 -7.74020181 40.85805694 -3.484375 40.31640625 C1.60577053 38.48395386 4.78335518 36.012495 7.515625 31.31640625 C7.9440421 22.59505822 2.34109659 15.07413562 -2.87890625 8.58203125 C-6.02350291 5.18786342 -9.35459975 3.41592846 -13.9921875 3.19921875 C-29.04856135 4.59249514 -40.85436324 11.17075446 -50.5859375 22.7890625 C-62.06518009 38.07109945 -68.40698475 55.17541511 -73.921875 73.25390625 C-75.04807536 76.89708061 -76.18039215 80.5383453 -77.3125 84.1796875 C-77.58619919 85.0638031 -77.85989838 85.9479187 -78.14189148 86.85882568 C-80.03311301 92.94545173 -82.04724068 98.97402117 -84.14526367 104.99267578 C-90.58223461 122.43361914 -90.58223461 122.43361914 -88.484375 140.31640625 C-86.04618745 143.00363736 -86.04618745 143.00363736 -82.984375 145.25390625 C-82.44683594 145.67647705 -81.90929687 146.09904785 -81.35546875 146.53442383 C-80.25875097 147.39569082 -79.15719573 148.25083514 -78.05078125 149.09960938 C-75.81077467 150.83966436 -73.65857782 152.68265843 -71.484375 154.50390625 C-48.53091311 172.56208006 -17.17941073 179.47045337 11.51293945 176.29711914 C17.60433962 175.54213045 23.4933627 174.34928476 29.4375 172.8046875 C36.33805149 171.71005687 41.16832453 173.900398 47.015625 177.12890625 C63.33977784 185.60603674 80.59321063 187.94999345 98.58203125 183.65625 C100.515625 183.31640625 100.515625 183.31640625 102.515625 184.31640625 C102.515625 185.96640625 102.515625 187.61640625 102.515625 189.31640625 C88.66813238 195.5613539 71.55091816 195.17808723 57.12890625 190.734375 C51.51742326 188.53224708 46.19016442 185.86550978 40.87890625 183.0234375 C35.64081749 180.3648489 33.23787679 180.22762649 27.47583008 181.65209961 C8.37779686 186.32379276 -12.41496867 186.09821896 -31.484375 181.31640625 C-32.51232178 181.06697266 -32.51232178 181.06697266 -33.56103516 180.8125 C-55.02637514 175.49905348 -71.41747402 165.00598324 -87.95556641 150.61181641 C-88.99407826 149.73185091 -90.05501894 148.8778261 -91.13427734 148.04833984 C-95.84207582 144.39305736 -97.16138449 141.77742241 -97.92578125 135.953125 C-98.33757949 122.52318894 -94.67816708 110.9705673 -90.484375 98.31640625 C-90.04579199 96.97963383 -89.60765839 95.64271391 -89.16992188 94.30566406 C-86.60910533 86.49566789 -84.0027379 78.70198971 -81.36495972 70.91767883 C-80.11340696 67.2144145 -78.89570044 63.5035106 -77.7265625 59.7734375 C-70.78077888 37.69134719 -58.80297029 12.67219209 -37.484375 1.31640625 C-25.06379625 -3.89969206 -12.09771577 -8.19829481 0 0 Z " fill="#745781" transform="translate(110.484375,94.68359375)"/>
<path d="M0 0 C20.60762364 17.29108421 29.12748323 42.79949737 37 67.625 C37.68256077 69.74772826 38.36615056 71.87012593 39.05078125 73.9921875 C40.69775995 79.10677081 42.32914141 84.22613494 43.95324707 89.34802246 C44.85331281 92.18172168 45.75940419 95.01342885 46.66699219 97.84472656 C47.2130347 99.55529256 47.75894108 101.26590201 48.3046875 102.9765625 C48.55219757 103.74608246 48.79970764 104.51560242 49.05471802 105.30844116 C51.09894204 111.74405542 52.07492844 117.44661677 52.125 124.1875 C52.1559375 125.22293945 52.1559375 125.22293945 52.1875 126.27929688 C52.22386772 131.07529018 51.51014262 134.24480419 48.875 138.25 C46.88449909 140.18745811 44.97091578 141.9056423 42.8125 143.625 C41.93815308 144.33825439 41.93815308 144.33825439 41.04614258 145.06591797 C39.86941946 146.02401229 38.68936942 146.97803653 37.50585938 147.92773438 C36.1018787 149.06605164 34.72749678 150.24070154 33.359375 151.421875 C11.77866897 169.7728155 -16.39426106 177.38028748 -44.25 177.5625 C-45.48395508 177.57410156 -46.71791016 177.58570313 -47.98925781 177.59765625 C-55.96937128 177.5647061 -63.13743892 176.61062699 -70.875 174.75 C-80.23332704 172.59565628 -85.50891581 174.06204083 -93.55859375 179.06640625 C-94.15397949 179.44555176 -94.74936523 179.82469727 -95.36279297 180.21533203 C-108.11259374 187.70129153 -125.78296097 187.95795579 -139.98046875 185.61328125 C-146.53736413 183.83763587 -146.53736413 183.83763587 -148.125 182.25 C-148.16563832 180.58382885 -148.167721 178.91611905 -148.125 177.25 C-144.73559713 176.1908116 -142.99860248 176.28326968 -139.50390625 177.203125 C-122.71316418 181.61246658 -105.47067103 177.15506434 -90.6652832 168.98046875 C-82.97541789 164.80320875 -76.92611754 165.19331852 -68.625 167.125 C-38.14177738 173.62831002 -5.56196203 168.20589731 20.875 151.25 C24.32092726 148.65013936 27.55917182 145.82688049 30.77734375 142.953125 C34.31446593 139.7996794 38.14617348 137.08098214 42.046875 134.39453125 C44.6496781 131.341243 44.70665945 128.12508361 44.875 124.25 C43.74278052 112.66960674 39.98570738 101.73799396 36.1875 90.8125 C35.37296827 88.43338498 34.56204986 86.05306058 33.75161743 83.67254639 C33.21405357 82.0937297 32.67530743 80.51531503 32.13534546 78.93731689 C30.18719967 73.2281433 28.36076107 67.48773536 26.58276367 61.72314453 C19.51999866 38.87672905 10.20058978 14.4248273 -11.4375 1.65234375 C-19.04946471 -2.31959714 -27.64858822 -4.78060441 -36.28515625 -3.40625 C-43.66708318 -0.70590297 -47.59500835 7.67337655 -51.125 14.25 C-52.85930632 18.75595474 -53.7752488 21.59047398 -52.125 26.25 C-48.26042986 30.49015496 -44.79016204 32.93018056 -39 33.625 C-34.51300188 33.19077438 -32.056578 31.76149473 -28.3359375 29.34375 C-25.67038878 28.02510399 -24.06695295 27.89156586 -21.125 28.25 C-19.1328125 29.23828125 -19.1328125 29.23828125 -17.25 30.5625 C-14.61446431 32.33786085 -12.15426971 33.73580917 -9.1875 34.875 C-8.176875 35.32875 -7.16625 35.7825 -6.125 36.25 C-4.99260062 39.64719815 -5.23493184 41.45774585 -5.68579102 44.98730469 C-5.90580528 46.75494171 -5.90580528 46.75494171 -6.13026428 48.55828857 C-6.29481613 49.83327209 -6.45936798 51.10825562 -6.62890625 52.421875 C-6.79305331 53.74591099 -6.95620092 55.07007124 -7.11839294 56.39434814 C-7.80820797 62.01534622 -8.51232244 67.63447367 -9.23022461 73.25195312 C-9.66897464 76.69047644 -10.09390792 80.1304849 -10.51054192 83.57175446 C-10.74950117 85.51112385 -11.00394916 87.44856466 -11.25868225 89.38592529 C-12.3146894 98.01437877 -12.3146894 98.01437877 -10.125 106.25 C-8.25958239 108.50810818 -8.25958239 108.50810818 -6 110.1875 C-5.27554688 110.77402344 -4.55109375 111.36054688 -3.8046875 111.96484375 C-3.25039063 112.38894531 -2.69609375 112.81304687 -2.125 113.25 C-2.455 114.57 -2.785 115.89 -3.125 117.25 C-4.75 118 -4.75 118 -7.125 118.25 C-12.31203487 115.4909389 -17.09501808 111.51929584 -18.91015625 105.7578125 C-21.6644555 100.07208865 -29.92327556 98.14699885 -35.5 95.875 C-46.43724931 93.98926736 -56.26192363 94.43678638 -65.4921875 100.91015625 C-70.78536575 105.24984953 -74.19998886 110.06856024 -77.51953125 116.02734375 C-79.125 118.25 -79.125 118.25 -81.19921875 119.19140625 C-81.83472656 119.21074219 -82.47023438 119.23007813 -83.125 119.25 C-84.115 118.26 -84.115 118.26 -85.125 117.25 C-84.90339538 112.20313339 -83.09302524 109.31949316 -80.0625 105.375 C-78.96228516 103.92480469 -78.96228516 103.92480469 -77.83984375 102.4453125 C-77.27394531 101.72085938 -76.70804687 100.99640625 -76.125 100.25 C-79.9933117 93.04087364 -86.73420263 88.37075152 -94.25 85.3125 C-107.2094826 81.64904202 -120.91922011 84.38504035 -132.625 90.5 C-135.91150823 92.14325411 -137.54323686 92.69772039 -141.125 92.25 C-141.62 89.775 -141.62 89.775 -142.125 87.25 C-129.63482547 78.50687783 -115.24434503 74.87312664 -100.125 76.25 C-91.71291482 77.86770869 -84.84520521 80.98244521 -78.125 86.25 C-77.53847656 86.70890625 -76.95195312 87.1678125 -76.34765625 87.640625 C-73.79685734 89.71120016 -71.42881037 91.91250819 -69.125 94.25 C-68.38056641 93.74339844 -68.38056641 93.74339844 -67.62109375 93.2265625 C-66.94175781 92.78054687 -66.26242187 92.33453125 -65.5625 91.875 C-64.90121094 91.43414062 -64.23992187 90.99328125 -63.55859375 90.5390625 C-54.91453697 85.96034864 -44.06851385 85.88822425 -34.6640625 88.04296875 C-31.7543169 88.99944684 -28.94483847 90.05616854 -26.125 91.25 C-25.36832031 91.55808594 -24.61164063 91.86617188 -23.83203125 92.18359375 C-22.25057623 92.84332249 -20.68495539 93.54092937 -19.125 94.25 C-19.0825415 93.5588208 -19.04008301 92.8676416 -18.99633789 92.15551758 C-18.25503398 81.36676044 -16.89966226 70.66550537 -15.5625 59.9375 C-15.32590093 58.02151781 -15.0895708 56.1055024 -14.85351562 54.18945312 C-14.28044055 49.5425802 -13.70373859 44.89617082 -13.125 40.25 C-14.27548828 40.05857422 -14.27548828 40.05857422 -15.44921875 39.86328125 C-18.125 39.25 -18.125 39.25 -20.9375 37.4375 C-23.91797489 35.95022942 -23.91797489 35.95022942 -26.14453125 36.91015625 C-27.5179204 37.62105713 -28.87063341 38.37387555 -30.1953125 39.171875 C-34.3549098 41.49586054 -38.42167947 41.56886919 -43.125 41.25 C-50.2561717 39.04581966 -55.98517102 34.45974347 -60.125 28.25 C-62.20336461 19.93654156 -59.58008205 13.57480888 -55.4375 6.27734375 C-46.11324114 -8.65352766 -46.11324114 -8.65352766 -36.625 -11.5 C-22.99846851 -12.86265315 -10.72576403 -8.22417577 0 0 Z " fill="#745782" transform="translate(435.125,101.75)"/>
<path d="M0 0 C2.12493141 -0.02693575 4.24995912 -0.04636628 6.375 -0.0625 C7.55835938 -0.07410156 8.74171875 -0.08570313 9.9609375 -0.09765625 C13 0 13 0 15 1 C15.02359968 20.42281631 15.04110962 39.84562962 15.05181217 59.26845741 C15.05691867 68.291444 15.06385035 77.31442156 15.07543945 86.33740234 C15.08556241 94.222789 15.09189417 102.10816912 15.09408849 109.9935621 C15.0953665 114.14974492 15.0982588 118.30590905 15.10573006 122.46208572 C15.14640339 145.99118472 14.72363929 169.482005 14 193 C9.05 193 4.1 193 -1 193 C-1.02316775 169.31247222 -1.04100427 145.62494719 -1.05181217 121.93741035 C-1.05696427 110.93841287 -1.06398628 99.93942256 -1.07543945 88.94042969 C-1.08541946 79.35159166 -1.09186133 69.76275882 -1.09408849 60.17391574 C-1.09538996 55.09865543 -1.09844013 50.02340999 -1.10573006 44.94815445 C-1.11254262 40.16627778 -1.11460633 35.38442203 -1.11310768 30.60254097 C-1.11338166 28.85227787 -1.11535561 27.10201403 -1.11920547 25.35175514 C-1.13699548 16.84297254 -1.07466656 8.45753896 0 0 Z " fill="#765685" transform="translate(244,153)"/>
<path d="M0 0 C16.97665274 -0.02315843 33.95329916 -0.04099949 50.92996407 -0.05181217 C58.81268985 -0.05696634 66.69540563 -0.0639923 74.578125 -0.07543945 C81.44946737 -0.08541313 88.3208025 -0.09185983 95.1921519 -0.09408849 C98.82976165 -0.09539103 102.46735067 -0.09844803 106.10495377 -0.10573006 C110.1677975 -0.11379724 114.23060531 -0.1139894 118.29345703 -0.11352539 C119.49683212 -0.11712067 120.70020721 -0.12071594 121.94004822 -0.12442017 C123.05055038 -0.1230455 124.16105255 -0.12167084 125.3052063 -0.12025452 C126.26571459 -0.12117631 127.22622288 -0.1220981 128.21583748 -0.12304783 C131 0 131 0 137 1 C137 6.61 137 12.22 137 18 C120.02334726 18.02315843 103.04670084 18.04099949 86.07003593 18.05181217 C78.18731015 18.05696634 70.30459437 18.0639923 62.421875 18.07543945 C55.55053263 18.08541313 48.6791975 18.09185983 41.8078481 18.09408849 C38.17023835 18.09539103 34.53264933 18.09844803 30.89504623 18.10573006 C26.8322025 18.11379724 22.76939469 18.1139894 18.70654297 18.11352539 C17.50316788 18.11712067 16.29979279 18.12071594 15.05995178 18.12442017 C13.94944962 18.1230455 12.83894745 18.12167084 11.6947937 18.12025452 C10.73428541 18.12117631 9.77377712 18.1220981 8.78416252 18.12304783 C6 18 6 18 0 17 C0 11.39 0 5.78 0 0 Z " fill="#775787" transform="translate(182,350)"/>
<path d="M0 0 C29.44251271 -0.07196948 58.87665682 0.13034047 88.31719971 0.46356201 C93.83709953 0.52553903 99.35702752 0.58490233 104.87695312 0.64453125 C115.58466373 0.76056353 126.29233795 0.87957043 137 1 C137 6.94 137 12.88 137 19 C128.41667946 19.03100221 119.83336962 19.05144061 111.25 19.0625 C110.59054508 19.06335602 109.93109016 19.06421204 109.25165176 19.06509399 C84.22716342 19.09363074 59.20936133 18.84944975 34.1875 18.5 C33.330923 18.48804218 32.47434601 18.47608437 31.59181213 18.46376419 C21.06110084 18.31612215 10.53051688 18.1608823 0 18 C0 12.06 0 6.12 0 0 Z " fill="#775786" transform="translate(183,131)"/>
<path d="M0 0 C35.97 0 71.94 0 109 0 C109 5.94 109 11.88 109 18 C95.52644115 18.02316082 82.05288702 18.04093422 68.57931232 18.05181217 C62.32313141 18.05703279 56.0669641 18.0641156 49.81079102 18.07543945 C43.77429762 18.08629742 37.73781733 18.09228303 31.70131493 18.09487724 C29.39721661 18.09672623 27.09311901 18.10033678 24.78902626 18.10573006 C21.56416901 18.11297902 18.33936603 18.1139893 15.11450195 18.11352539 C14.16000153 18.11712067 13.2055011 18.12071594 12.22207642 18.12442017 C11.34013107 18.1230455 10.45818573 18.12167084 9.54951477 18.12025452 C8.78719197 18.12117631 8.02486917 18.1220981 7.23944569 18.12304783 C5 18 5 18 0 17 C0 11.39 0 5.78 0 0 Z " fill="#785787" transform="translate(197,110)"/>
<path d="M0 0 C35.97 0 71.94 0 109 0 C109 5.94 109 11.88 109 18 C81.63928838 18.11172704 54.2936685 17.98445034 26.9375 17.5 C26.26197586 17.48804218 25.58645172 17.47608437 24.89045715 17.46376419 C16.59349982 17.31625079 8.29670561 17.16100962 0 17 C0 11.39 0 5.78 0 0 Z " fill="#775787" transform="translate(196,372)"/>
<path d="M0 0 C9.82281495 -0.02260037 19.64561261 -0.04094373 29.46844769 -0.05181217 C34.02967483 -0.05702871 38.59088324 -0.06410407 43.15209961 -0.07543945 C47.55466203 -0.08631197 51.95720645 -0.09228611 56.35978127 -0.09487724 C58.03867692 -0.09672361 59.7175716 -0.10032909 61.39645958 -0.10573006 C63.74959816 -0.11299839 66.10266253 -0.11398849 68.45581055 -0.11352539 C69.1484903 -0.11712067 69.84117004 -0.12071594 70.55484009 -0.12442017 C74.26217382 -0.11653536 77.31122367 0.26224473 81 1 C81 6.61 81 12.22 81 18 C54.27 18 27.54 18 0 18 C0 12.06 0 6.12 0 0 Z " fill="#785787" transform="translate(211,88)"/>
<path d="M0 0 C9.23219679 -0.02265613 18.4643749 -0.04097576 27.69659328 -0.05181217 C31.98418148 -0.05701495 36.27174955 -0.06406494 40.55932617 -0.07543945 C44.70255288 -0.08636135 48.84576032 -0.09229643 52.98900032 -0.09487724 C54.56411098 -0.0967148 56.13922066 -0.1003029 57.71432304 -0.10573006 C65.5384823 -0.13159937 73.23508593 -0.10817786 81 1 C81 6.61 81 12.22 81 18 C54.27 18 27.54 18 0 18 C0 12.06 0 6.12 0 0 Z " fill="#775686" transform="translate(210,393)"/>
<path d="M0 0 C0.72445312 0.0928125 1.44890625 0.185625 2.1953125 0.28125 C2.88671875 2.546875 2.88671875 2.546875 3.1953125 5.28125 C-4.55542433 18.12085445 -23.40826044 24.94229681 -37.03125 28.93359375 C-39.94367177 29.50453106 -42.84901852 29.33808979 -45.8046875 29.28125 C-46.4296875 26.90625 -46.4296875 26.90625 -46.8046875 24.28125 C-44.50234709 21.97890959 -42.81607297 21.73654077 -39.7019043 21.09130859 C-25.89084742 18.20908546 -14.97020439 12.32159769 -5.171875 2.1875 C-2.8046875 0.28125 -2.8046875 0.28125 0 0 Z " fill="#70567D" transform="translate(442.8046875,230.71875)"/>
<path d="M0 0 C2.99631018 -0.29345306 4.46353893 -0.43573314 6.8515625 1.50390625 C7.43679687 2.18324219 8.02203125 2.86257812 8.625 3.5625 C18.24200808 13.73675528 31.32360266 19.49500465 45.07421875 21.54296875 C47 22 47 22 49 24 C48.625 26.625 48.625 26.625 48 29 C31.7056798 29.67279774 15.97907863 20.77041029 4.0625 10.3125 C3.5355957 9.86116699 3.00869141 9.40983398 2.46582031 8.94482422 C1.03515625 7.61328125 1.03515625 7.61328125 -1 5 C-0.81640625 2.16796875 -0.81640625 2.16796875 0 0 Z " fill="#73577F" transform="translate(55,231)"/>
<path d="M0 0 C0.721875 0.103125 1.44375 0.20625 2.1875 0.3125 C2.83203125 2.09765625 2.83203125 2.09765625 3.1875 4.3125 C0.03859302 10.68155621 -6.50879064 13.79517712 -12.8125 16.3125 C-16.48873466 17.54048595 -20.08143665 17.47987441 -23.9375 17.5 C-25.17757813 17.51417969 -26.41765625 17.52835937 -27.6953125 17.54296875 C-30.8125 17.3125 -30.8125 17.3125 -32.8125 15.3125 C-32.4375 12.6875 -32.4375 12.6875 -31.8125 10.3125 C-30.91789062 10.28671875 -30.02328125 10.2609375 -29.1015625 10.234375 C-17.11683829 9.67219177 -9.42966367 1.04774041 0 0 Z " fill="#755784" transform="translate(322.8125,246.6875)"/>
<path d="M0 0 C3.21985942 0.48997861 3.86751194 1.10520555 6.1875 3.25 C13.72092155 10.07515115 22.11167678 10.03983655 31.875 10.4375 C32.5 12.8125 32.5 12.8125 32.875 15.4375 C30.09290857 18.21959143 28.32594645 17.76991023 24.4375 17.8125 C14.29075835 17.63594462 6.95256651 15.01593095 -0.6640625 8.31640625 C-2.43832228 6.03453739 -2.84845588 4.29353328 -3.125 1.4375 C-2.125 0.4375 -2.125 0.4375 0 0 Z " fill="#735781" transform="translate(177.125,246.5625)"/>
<path d="M0 0 C5.28 0 10.56 0 16 0 C16 3.96 16 7.92 16 12 C10.72 12 5.44 12 0 12 C0 8.04 0 4.08 0 0 Z " fill="#785788" transform="translate(242,415)"/>
<path d="M0 0 C5.28 0 10.56 0 16 0 C16 3.96 16 7.92 16 12 C10.72 12 5.44 12 0 12 C0 8.04 0 4.08 0 0 Z " fill="#765884" transform="translate(244,73)"/>
<path d="M0 0 C0.86140091 0.02502594 1.72280182 0.05005188 2.61030579 0.07583618 C5.36169942 0.15801109 8.11237254 0.25460995 10.86328125 0.3515625 C12.72848619 0.40980465 14.5937207 0.46710788 16.45898438 0.5234375 C21.03166444 0.66358614 25.60375061 0.81667256 30.17578125 0.9765625 C30.17578125 1.9665625 30.17578125 2.9565625 30.17578125 3.9765625 C26.83085046 6.20651636 25.74574852 6.22388011 21.84375 6.20703125 C20.79767578 6.20509766 19.75160156 6.20316406 18.67382812 6.20117188 C17.03510742 6.18280273 17.03510742 6.18280273 15.36328125 6.1640625 C14.28240234 6.16341797 13.20152344 6.16277344 12.08789062 6.16210938 C6.98469799 6.13391494 2.20597712 5.90859676 -2.82421875 4.9765625 C-2.82421875 4.3165625 -2.82421875 3.6565625 -2.82421875 2.9765625 C-5.87692338 2.81844862 -5.87692338 2.81844862 -8.82421875 3.9765625 C-9.81421875 3.3165625 -10.80421875 2.6565625 -11.82421875 1.9765625 C-7.86266076 -0.66447616 -4.57604851 -0.17589923 0 0 Z " fill="#785788" transform="translate(95.82421875,272.0234375)"/>
<path d="M0 0 C1.48297502 0.06591 2.96285515 0.20476019 4.4375 0.375 C8.97657118 0.88515497 13.51612125 1.3212212 18.06640625 1.71875 C20 2 20 2 21 3 C21.125 5.5 21.125 5.5 21 8 C20 9 20 9 16.625 9.1875 C10.88165752 9.12507236 4.18472961 8.5923648 -1 6 C-1.042721 4.33388095 -1.04063832 2.66617115 -1 1 C-0.67 0.67 -0.34 0.34 0 0 Z " fill="#745884" transform="translate(371,252)"/>
<path d="M0 0 C1 1 1 1 1.0625 3.5625 C1.041875 4.366875 1.02125 5.17125 1 6 C-5.98929888 8.55706057 -12.61840891 9.25453762 -20 9 C-21 8 -21 8 -21.125 5.5 C-21 3 -21 3 -20 2 C-17.58168921 1.59596515 -15.18063589 1.24647914 -12.75 0.9375 C-12.08097656 0.84662109 -11.41195312 0.75574219 -10.72265625 0.66210938 C-7.13336539 0.19317452 -3.62007607 -0.21094428 0 0 Z " fill="#765785" transform="translate(129,252)"/>
<path d="M0 0 C1.45823212 -0.0270043 2.91660675 -0.04639787 4.375 -0.0625 C5.18710937 -0.07410156 5.99921875 -0.08570313 6.8359375 -0.09765625 C9 0 9 0 11 1 C13.79518407 1.06998896 16.57589002 0.99705161 19.37109375 0.9375 C22 1 22 1 25 2 C25.33 1.34 25.66 0.68 26 0 C29.49234244 -0.09978121 32.59437148 0.22157062 36 1 C33.38808668 4.38012311 30.0354116 5.22452172 26 6 C22.80648283 6.247597 19.63877666 6.23528025 16.4375 6.1875 C15.61314453 6.18685547 14.78878906 6.18621094 13.93945312 6.18554688 C9.5206541 6.15375695 5.34851642 5.88097983 1 5 C0.67 3.35 0.34 1.7 0 0 Z " fill="#785888" transform="translate(294,281)"/>
<path d="M0 0 C2.97 0 5.94 0 9 0 C9 5.61 9 11.22 9 17 C-8.16 17 -25.32 17 -43 17 C-43 16.67 -43 16.34 -43 16 C-37.26380803 15.0126507 -31.72328342 14.86917064 -25.91015625 14.90234375 C-24.96563095 14.9037587 -24.02110565 14.90517365 -23.04795837 14.90663147 C-20.05277237 14.9121964 -17.05766313 14.92474233 -14.0625 14.9375 C-12.02278754 14.94251954 -9.98307391 14.94708165 -7.94335938 14.95117188 C-2.96221034 14.96215433 2.01888185 14.9793946 7 15 C6.505 9.06 6.505 9.06 6 3 C4.02 2.34 2.04 1.68 0 1 C0 0.67 0 0.34 0 0 Z " fill="#6C5577" transform="translate(282,394)"/>
<path d="M0 0 C0.33 0 0.66 0 1 0 C1.33 3.3 1.66 6.6 2 10 C4.97 10.33 7.94 10.66 11 11 C11 11.66 11 12.32 11 13 C26.84 13 42.68 13 59 13 C59 13.33 59 13.66 59 14 C39.53 14 20.06 14 0 14 C0 9.38 0 4.76 0 0 Z " fill="#715A7C" transform="translate(196,375)"/>
<path d="M0 0 C0.99 0.33 1.98 0.66 3 1 C0.72688191 6.9818897 -1.90956272 8.77466734 -7.75 11.4375 C-9.82463068 12.31259201 -11.90546299 13.17368699 -14 14 C-14.66 13.01 -15.32 12.02 -16 11 C-13.83942138 8.83942138 -11.53484998 7.56339946 -8.8828125 6.08203125 C-4.16279255 3.41160101 -4.16279255 3.41160101 0 0 Z " fill="#79578A" transform="translate(432,240)"/>
<path d="M0 0 C1.093125 -0.020625 2.18625 -0.04125 3.3125 -0.0625 C6 0 6 0 8 2 C7.625 4.125 7.625 4.125 7 6 C1.13190493 5.47606294 -3.54873741 4.23891142 -9 2 C-9 1.34 -9 0.68 -9 0 C-5.94303796 -1.52848102 -3.33082979 -0.49962447 0 0 Z " fill="#795887" transform="translate(94,253)"/>
<path d="M0 0 C1.7015625 0.4640625 1.7015625 0.4640625 3.4375 0.9375 C6.38492369 1.81655619 9.17226448 2.80035463 12 4 C11.67 4.99 11.34 5.98 11 7 C5.09471732 6.61167075 0.24210819 5.83947527 -5 3 C-5.33 2.01 -5.66 1.02 -6 0 C-3.40513158 -1.29743421 -2.75855577 -0.82011118 0 0 Z " fill="#795887" transform="translate(70,267)"/>
<path d="M0 0 C1.76923828 0.01353516 1.76923828 0.01353516 3.57421875 0.02734375 C4.47785156 0.03894531 5.38148438 0.05054688 6.3125 0.0625 C5.6525 0.7225 4.9925 1.3825 4.3125 2.0625 C5.3025 3.5475 5.3025 3.5475 6.3125 5.0625 C2.76575997 6.24474668 0.33727005 5.95579634 -3.375 5.625 C-4.55449219 5.52316406 -5.73398438 5.42132813 -6.94921875 5.31640625 C-7.85285156 5.23261719 -8.75648438 5.14882812 -9.6875 5.0625 C-9.6875 3.7425 -9.6875 2.4225 -9.6875 1.0625 C-6.26517028 -0.07827657 -3.60076783 -0.03565117 0 0 Z " fill="#795886" transform="translate(173.6875,178.9375)"/>
<path d="M0 0 C0.33 0.66 0.66 1.32 1 2 C1.66 2 2.32 2 3 2 C2.979375 2.7425 2.95875 3.485 2.9375 4.25 C3.00886801 7.39019242 3.5519386 9.91718496 4.75 12.8125 C5.15342046 16.34242904 3.52134304 18.83560647 2 22 C1.01 21.67 0.02 21.34 -1 21 C-0.4740625 19.9790625 -0.4740625 19.9790625 0.0625 18.9375 C1.44018422 14.6207561 0.94977139 10.8467777 -1.125 6.8125 C-2 5 -2 5 -1.6875 2.8125 C-1 1 -1 1 0 0 Z " fill="#7A578A" transform="translate(119,110)"/>
<path d="M0 0 C5.28 0 10.56 0 16 0 C16 2.97 16 5.94 16 9 C15.67 9 15.34 9 15 9 C15 6.36 15 3.72 15 1 C10.38 1 5.76 1 1 1 C1 3.97 1 6.94 1 10 C1.61875 9.814375 2.2375 9.62875 2.875 9.4375 C7.3323206 8.81347512 11.55486111 9.43896305 16 10 C16 10.66 16 11.32 16 12 C10.72 12 5.44 12 0 12 C0 8.04 0 4.08 0 0 Z " fill="#6A5777" transform="translate(242,415)"/>
<path d="M0 0 C0 3 0 3 -1.42578125 4.5 C-2.04839844 4.995 -2.67101562 5.49 -3.3125 6 C-5.16639649 7.49244497 -6.93603604 8.93463195 -8.6015625 10.63671875 C-10.34906242 12.34028711 -11.58360015 12.76615485 -14 13 C-14.66 12.34 -15.32 11.68 -16 11 C-15.34 10.34 -14.68 9.68 -14 9 C-13.34 8.01 -12.68 7.02 -12 6 C-9.36034793 4.38214873 -8.15987325 4 -5 4 C-4.67 3.01 -4.34 2.02 -4 1 C-1.9375 0.3125 -1.9375 0.3125 0 0 Z " fill="#79578B" transform="translate(473,244)"/>
<path d="M0 0 C0.99 0.33 1.98 0.66 3 1 C3.12375 2.0725 3.2475 3.145 3.375 4.25 C3.89643936 7.37863615 4.40088254 9.33480424 6 12 C5.01 13.485 5.01 13.485 4 15 C3.01 15 2.02 15 1 15 C-2.31707317 4.63414634 -2.31707317 4.63414634 0 0 Z " fill="#785887" transform="translate(15,225)"/>
<path d="M0 0 C1.0209375 0.2165625 1.0209375 0.2165625 2.0625 0.4375 C2.80859375 2.66796875 2.80859375 2.66796875 3.0625 5.4375 C1.41015625 7.67578125 1.41015625 7.67578125 -0.875 9.75 C-1.62652344 10.44738281 -2.37804687 11.14476562 -3.15234375 11.86328125 C-3.74144531 12.38277344 -4.33054687 12.90226563 -4.9375 13.4375 C-4.9375 9.04781544 -2.80944899 7.66844261 0.0625 4.4375 C-2.21520623 4.22218592 -2.21520623 4.22218592 -4.375 6.5 C-5.220625 7.139375 -6.06625 7.77875 -6.9375 8.4375 C-7.9275 8.1075 -8.9175 7.7775 -9.9375 7.4375 C-3.86310175 0.57535558 -3.86310175 0.57535558 0 0 Z " fill="#6D5679" transform="translate(442.9375,230.5625)"/>
<path d="M0 0 C1.32 0.33 2.64 0.66 4 1 C3.63076923 8.26153846 3.63076923 8.26153846 0.4375 12 C-0.366875 12.66 -1.17125 13.32 -2 14 C-3.25127906 10.45332822 -2.72285053 8.27746562 -1.5625 4.75 C-1.27503906 3.85796875 -0.98757812 2.9659375 -0.69140625 2.046875 C-0.46324219 1.37140625 -0.23507813 0.6959375 0 0 Z " fill="#795889" transform="translate(18,204)"/>
<path d="M0 0 C1 1 1 1 1.0625 3.5625 C1.041875 4.366875 1.02125 5.17125 1 6 C0.34 6 -0.32 6 -1 6 C-1.33 4.68 -1.66 3.36 -2 2 C-3.0725 2.165 -4.145 2.33 -5.25 2.5 C-9 3 -9 3 -13 3 C-13.33 3.66 -13.66 4.32 -14 5 C-14 4.34 -14 3.68 -14 3 C-17.72614153 4.11854586 -17.72614153 4.11854586 -20 7 C-18.35 7.33 -16.7 7.66 -15 8 C-15 8.33 -15 8.66 -15 9 C-16.66611905 9.042721 -18.33382885 9.04063832 -20 9 C-21 8 -21 8 -21.125 5.5 C-21 3 -21 3 -20 2 C-17.58168921 1.59596515 -15.18063589 1.24647914 -12.75 0.9375 C-12.08097656 0.84662109 -11.41195312 0.75574219 -10.72265625 0.66210938 C-7.13336539 0.19317452 -3.62007607 -0.21094428 0 0 Z " fill="#6B5776" transform="translate(129,252)"/>
<path d="M0 0 C7.51081531 0.6156406 7.51081531 0.6156406 9.75 2.375 C10.36875 3.179375 10.36875 3.179375 11 4 C12.31963709 5.01800576 13.65009646 6.02248365 15 7 C14.34 7 13.68 7 13 7 C12.67 7.66 12.34 8.32 12 9 C11.34 8.34 10.68 7.68 10 7 C7.66989091 6.32215008 5.33640176 5.65583207 3 5 C2.01 4.34 1.02 3.68 0 3 C0 2.01 0 1.02 0 0 Z " fill="#795889" transform="translate(408,132)"/>
<path d="M0 0 C0.66 0.33 1.32 0.66 2 1 C1.50769231 8.50769231 1.50769231 8.50769231 -1.0625 11 C-2.0215625 11.495 -2.0215625 11.495 -3 12 C-3.66 11.67 -4.32 11.34 -5 11 C-5 11.66 -5 12.32 -5 13 C-4.34 13 -3.68 13 -3 13 C-3.33 13.99 -3.66 14.98 -4 16 C-4.66 15.67 -5.32 15.34 -6 15 C-6 13.35 -6 11.7 -6 10 C-5.01 10 -4.02 10 -3 10 C-3.226875 9.443125 -3.45375 8.88625 -3.6875 8.3125 C-4.12689481 5.06097838 -2.84059511 3.61930843 -1 1 C-0.67 0.67 -0.34 0.34 0 0 Z " fill="#795889" transform="translate(33,166)"/>
<path d="M0 0 C1.32 1.32 2.64 2.64 4 4 C-0.70973649 5.76615118 -5.03083364 6.48594831 -10 7 C-9 4 -9 4 -6.93359375 2.83203125 C-6.10988281 2.49558594 -5.28617187 2.15914063 -4.4375 1.8125 C-3.61121094 1.46832031 -2.78492187 1.12414062 -1.93359375 0.76953125 C-1.29550781 0.51558594 -0.65742187 0.26164062 0 0 Z " fill="#79588A" transform="translate(87,92)"/>
<path d="M0 0 C1.45792884 -0.05399736 2.91642712 -0.09279177 4.375 -0.125 C5.18710937 -0.14820313 5.99921875 -0.17140625 6.8359375 -0.1953125 C9 0 9 0 11 2 C3.71428571 5.57142857 3.71428571 5.57142857 -1 4 C-0.67 2.68 -0.34 1.36 0 0 Z " fill="#7A5788" transform="translate(399,254)"/>
<path d="M0 0 C1.65 0 3.3 0 5 0 C4.01 0.33 3.02 0.66 2 1 C2.33 3.97 2.66 6.94 3 10 C6.96 10.33 10.92 10.66 15 11 C15.33 10.34 15.66 9.68 16 9 C16 9.99 16 10.98 16 12 C10.72 12 5.44 12 0 12 C0 8.04 0 4.08 0 0 Z " fill="#6C5877" transform="translate(244,73)"/>
<path d="M0 0 C2.0625 0.4375 2.0625 0.4375 4 1 C3.01 1.495 3.01 1.495 2 2 C0.70069762 6.28769786 0.92483226 10.56510345 1 15 C2.32 14.67 3.64 14.34 5 14 C5.33 14.99 5.66 15.98 6 17 C3.69 17 1.38 17 -1 17 C-1.02684679 14.35409986 -1.04676357 11.70846904 -1.0625 9.0625 C-1.07087891 8.30775391 -1.07925781 7.55300781 -1.08789062 6.77539062 C-1.09652441 4.85005687 -1.05224333 2.92464419 -1 1 C-0.67 0.67 -0.34 0.34 0 0 Z " fill="#715A7C" transform="translate(211,394)"/>
<path d="M0 0 C3.91211733 1.15585285 6.8745041 2.35534962 10 5 C9.67 6.65 9.34 8.3 9 10 C6.69 9.67 4.38 9.34 2 9 C3.32 8.34 4.64 7.68 6 7 C4.7499203 3.24976089 3.33541853 2.88151815 0 1 C0 0.67 0 0.34 0 0 Z " fill="#6B5676" transform="translate(197,184)"/>
<path d="M0 0 C0.33 1.32 0.66 2.64 1 4 C0.01 4.33 -0.98 4.66 -2 5 C-2.33 5.66 -2.66 6.32 -3 7 C-4.875 7.8125 -4.875 7.8125 -7 8 C-7.99 7.01 -8.98 6.02 -10 5 C-6.7 3.35 -3.4 1.7 0 0 Z " fill="#7A578A" transform="translate(117,132)"/>
<path d="M0 0 C1.65 0.33 3.3 0.66 5 1 C5 1.99 5 2.98 5 4 C0.545 5.485 0.545 5.485 -4 7 C-4.66 6.34 -5.32 5.68 -6 5 C-2.25 2 -2.25 2 0 2 C0 1.34 0 0.68 0 0 Z " fill="#7A588B" transform="translate(154,182)"/>
<path d="M0 0 C-4.85526316 5.25986842 -4.85526316 5.25986842 -9 6 C-9.33 6.66 -9.66 7.32 -10 8 C-10.33 7.01 -10.66 6.02 -11 5 C-10.34 5 -9.68 5 -9 5 C-8.9175 4.38125 -8.835 3.7625 -8.75 3.125 C-8 1 -8 1 -6.1875 -0.3125 C-3.67700322 -1.10151327 -2.44507934 -0.87324262 0 0 Z " fill="#7A598A" transform="translate(398,95)"/>
<path d="M0 0 C1.1446875 0.0928125 1.1446875 0.0928125 2.3125 0.1875 C2.6425 1.5075 2.9725 2.8275 3.3125 4.1875 C2.6525 3.8575 1.9925 3.5275 1.3125 3.1875 C0.3225 2.8575 -0.6675 2.5275 -1.6875 2.1875 C-2.43 2.97125 -3.1725 3.755 -3.9375 4.5625 C-7.76067073 8.21189024 -7.76067073 8.21189024 -10.6875 9.1875 C-11.6775 8.8575 -12.6675 8.5275 -13.6875 8.1875 C-12.87345703 7.69830078 -12.87345703 7.69830078 -12.04296875 7.19921875 C-10.96982422 6.54373047 -10.96982422 6.54373047 -9.875 5.875 C-9.16730469 5.44574219 -8.45960938 5.01648438 -7.73046875 4.57421875 C-5.65587853 3.26888515 -5.65587853 3.26888515 -4.09375 1.53125 C-2.6875 0.1875 -2.6875 0.1875 0 0 Z " fill="#6A5577" transform="translate(322.6875,246.8125)"/>
<path d="M0 0 C1.5625 1.1875 1.5625 1.1875 3 3 C2.6875 5.6875 2.6875 5.6875 2 8 C1.01 8.33 0.02 8.66 -1 9 C-2.32 7.68 -3.64 6.36 -5 5 C-4.67 4.34 -4.34 3.68 -4 3 C-2.515 3.99 -2.515 3.99 -1 5 C-0.67 3.35 -0.34 1.7 0 0 Z " fill="#6C5677" transform="translate(147,212)"/>
<path d="M0 0 C0.99386719 0.10183594 1.98773438 0.20367187 3.01171875 0.30859375 C3.77097656 0.39238281 4.53023438 0.47617187 5.3125 0.5625 C5.3125 1.2225 5.3125 1.8825 5.3125 2.5625 C0.0325 2.5625 -5.2475 2.5625 -10.6875 2.5625 C-7.27994642 -0.84505358 -4.53278925 -0.47994239 0 0 Z " fill="#66526F" transform="translate(252.6875,424.4375)"/>
<path d="M0 0 C1.65 0.33 3.3 0.66 5 1 C5 2.32 5 3.64 5 5 C2.69 5.33 0.38 5.66 -2 6 C-2 3 -2 3 0 0 Z " fill="#785887" transform="translate(132,270)"/>
<path d="M0 0 C0.66 0.33 1.32 0.66 2 1 C2 2.32 2 3.64 2 5 C6.29 5.33 10.58 5.66 15 6 C15 6.33 15 6.66 15 7 C12.70858714 7.05384521 10.41681812 7.09272087 8.125 7.125 C6.21074219 7.15980469 6.21074219 7.15980469 4.2578125 7.1953125 C1 7 1 7 -1 5 C-0.625 2.375 -0.625 2.375 0 0 Z " fill="#6D5877" transform="translate(291,257)"/>
<path d="M0 0 C0.33 0 0.66 0 1 0 C0.96519531 1.10408203 0.96519531 1.10408203 0.9296875 2.23046875 C0.91164063 3.20628906 0.89359375 4.18210938 0.875 5.1875 C0.84019531 6.63189453 0.84019531 6.63189453 0.8046875 8.10546875 C1.05893037 11.87334804 2.33147699 14.66295398 4 18 C0.63279613 16.60667426 -0.9859524 15.0210714 -3 12 C-2.34 12 -1.68 12 -1 12 C-0.67 8.04 -0.34 4.08 0 0 Z " fill="#6D5577" transform="translate(422,192)"/>
<path d="M0 0 C1.9375 0.8125 1.9375 0.8125 4 2 C4.33 2.99 4.66 3.98 5 5 C4.01 5.99 3.02 6.98 2 8 C0.4375 6.8125 0.4375 6.8125 -1 5 C-0.6875 2.3125 -0.6875 2.3125 0 0 Z " fill="#79588D" transform="translate(143,210)"/>
<path d="M0 0 C0.66 0 1.32 0 2 0 C2 1.65 2 3.3 2 5 C-4.4 8.07692308 -4.4 8.07692308 -7.4375 7.6875 C-7.953125 7.460625 -8.46875 7.23375 -9 7 C-6.03312999 5.35173889 -3.34373475 4.55728913 0 4 C0 2.68 0 1.36 0 0 Z " fill="#6B5474" transform="translate(211,279)"/>
<path d="M0 0 C0.99 0.33 1.98 0.66 3 1 C2.01 1.66 1.02 2.32 0 3 C-1.01868662 3.98095748 -2.02351983 4.97702078 -3 6 C-2.34 6 -1.68 6 -1 6 C-0.67 6.99 -0.34 7.98 0 9 C-1.32 8.67 -2.64 8.34 -4 8 C-4.33 6.68 -4.66 5.36 -5 4 C-2.6875 1.9375 -2.6875 1.9375 0 0 Z " fill="#6F5778" transform="translate(72,211)"/>
<path d="M0 0 C0 0.66 0 1.32 0 2 C-1.64453125 3.32421875 -1.64453125 3.32421875 -3.8125 4.6875 C-4.52019531 5.14511719 -5.22789062 5.60273438 -5.95703125 6.07421875 C-8 7 -8 7 -11 6 C-9.54550599 4.9944239 -8.08627557 3.99569565 -6.625 3 C-5.40683594 2.1646875 -5.40683594 2.1646875 -4.1640625 1.3125 C-2 0 -2 0 0 0 Z " fill="#6E5679" transform="translate(154,182)"/>
<path d="M0 0 C0.99 0.33 1.98 0.66 3 1 C3 3.15634036 2.5534764 4.92446352 2 7 C0.68 7 -0.64 7 -2 7 C-1.34 4.69 -0.68 2.38 0 0 Z " fill="#7A578A" transform="translate(382,106)"/>
<path d="M0 0 C1.32 0.33 2.64 0.66 4 1 C4 1.99 4 2.98 4 4 C3.01 4 2.02 4 1 4 C1 4.66 1 5.32 1 6 C-0.32 5.34 -1.64 4.68 -3 4 C-2.01 2.68 -1.02 1.36 0 0 Z " fill="#7A5888" transform="translate(321,248)"/>
<path d="M0 0 C0.66 0.99 1.32 1.98 2 3 C-0.3125 5.0625 -0.3125 5.0625 -3 7 C-3.99 6.67 -4.98 6.34 -6 6 C-4.11192137 3.30274481 -2.80175356 1.86783571 0 0 Z " fill="#7B588C" transform="translate(442,233)"/>
<path d="M0 0 C1.69141656 0.08963062 3.37959602 0.24577676 5.0625 0.4375 C6.44115234 0.59025391 6.44115234 0.59025391 7.84765625 0.74609375 C8.55792969 0.82988281 9.26820313 0.91367188 10 1 C6.28125 3.046875 6.28125 3.046875 3.75 2.625 C3.1725 2.41875 2.595 2.2125 2 2 C1.67 3.32 1.34 4.64 1 6 C0.34 6 -0.32 6 -1 6 C-1.042721 4.33388095 -1.04063832 2.66617115 -1 1 C-0.67 0.67 -0.34 0.34 0 0 Z " fill="#6D5877" transform="translate(371,252)"/>
<path d="M0 0 C0.66 0 1.32 0 2 0 C1.67 0.99 1.34 1.98 1 3 C0.01 3.33 -0.98 3.66 -2 4 C-2.33 4.99 -2.66 5.98 -3 7 C-5.5625 8.6875 -5.5625 8.6875 -8 10 C-6.44303593 6.17836093 -3.96591316 3.81381505 -1 1 C-0.67 0.67 -0.34 0.34 0 0 Z " fill="#6D5378" transform="translate(392,93)"/>
<path d="M0 0 C0.99 0.33 1.98 0.66 3 1 C2.34 1 1.68 1 1 1 C1 2.32 1 3.64 1 5 C-1.375 5.625 -1.375 5.625 -4 6 C-4.66 5.34 -5.32 4.68 -6 4 C-3.1875 1.9375 -3.1875 1.9375 0 0 Z " fill="#7B588C" transform="translate(478,238)"/>
<path d="M0 0 C2.02350324 3.03525486 2.32124018 4.19426202 2.625 7.6875 C2.69976562 8.49574219 2.77453125 9.30398437 2.8515625 10.13671875 C2.92503906 11.05904297 2.92503906 11.05904297 3 12 C1.35 10.35 -0.3 8.7 -2 7 C-1.01 6.67 -0.02 6.34 1 6 C0.67 4.02 0.34 2.04 0 0 Z " fill="#6D5379" transform="translate(483,206)"/>
<path d="M0 0 C0.66 0.33 1.32 0.66 2 1 C2.25 4.3125 2.25 4.3125 2 8 C0 9.9375 0 9.9375 -2 11 C-2 8 -2 8 -1 7 C-0.63239269 4.67182036 -0.29758419 2.3381615 0 0 Z " fill="#6F567B" transform="translate(77,200)"/>
<path d="M0 0 C1.58467728 0.28427417 3.1677057 0.57774818 4.75 0.875 C6.07257813 1.11863281 6.07257813 1.11863281 7.421875 1.3671875 C9.86947744 1.96796264 11.80599857 2.77997117 14 4 C9.20291909 4.19188324 5.43866361 3.9022844 1 2 C0.67 1.34 0.34 0.68 0 0 Z " fill="#6C5676" transform="translate(69,266)"/>
<path d="M0 0 C1.32 0.33 2.64 0.66 4 1 C-0.455 4.465 -0.455 4.465 -5 8 C-5.33 7.01 -5.66 6.02 -6 5 C-5.195625 4.731875 -4.39125 4.46375 -3.5625 4.1875 C-2.716875 3.795625 -1.87125 3.40375 -1 3 C-0.67 2.01 -0.34 1.02 0 0 Z " fill="#6F5779" transform="translate(70,104)"/>
<path d="M0 0 C0.66 0.33 1.32 0.66 2 1 C1.34 2.98 0.68 4.96 0 7 C-0.66 7 -1.32 7 -2 7 C-2.33 5.35 -2.66 3.7 -3 2 C-2.01 1.34 -1.02 0.68 0 0 Z " fill="#7C588C" transform="translate(48,126)"/>
<path d="M0 0 C4.61691161 0.52464905 6.09987886 1.07490914 10 4 C6.7 3.34 3.4 2.68 0 2 C0 1.34 0 0.68 0 0 Z " fill="#6F577A" transform="translate(362,274)"/>
<path d="M0 0 C1.98 0.495 1.98 0.495 4 1 C4 1.99 4 2.98 4 4 C3.01 4 2.02 4 1 4 C0.67 4.66 0.34 5.32 0 6 C-1.125 2.25 -1.125 2.25 0 0 Z " fill="#7B578C" transform="translate(359,205)"/>
<path d="M0 0 C-1.65 0.33 -3.3 0.66 -5 1 C-5.33 1.99 -5.66 2.98 -6 4 C-6.33 3.34 -6.66 2.68 -7 2 C-8.32 2.33 -9.64 2.66 -11 3 C-11 2.34 -11 1.68 -11 1 C-3.375 -1.125 -3.375 -1.125 0 0 Z " fill="#6C5378" transform="translate(211,279)"/>
<path d="M0 0 C0.33 1.32 0.66 2.64 1 4 C-0.75 5.0625 -0.75 5.0625 -3 6 C-4.32 5.67 -5.64 5.34 -7 5 C-4.69 3.35 -2.38 1.7 0 0 Z " fill="#6F567C" transform="translate(460,250)"/>
<path d="M0 0 C0.66 0 1.32 0 2 0 C2.66 1.65 3.32 3.3 4 5 C3.34 5.66 2.68 6.32 2 7 C1.01 6.34 0.02 5.68 -1 5 C-0.67 3.35 -0.34 1.7 0 0 Z " fill="#7A588A" transform="translate(58,233)"/>
<path d="M0 0 C5.75 1.75 5.75 1.75 8 4 C4.86650268 5.04449911 4.01031744 4.93423645 1 4 C0.67 2.68 0.34 1.36 0 0 Z " fill="#7A5888" transform="translate(135,204)"/>
<path d="M0 0 C0.33 0 0.66 0 1 0 C0.88590407 1.45922693 0.75834456 2.91740598 0.625 4.375 C0.55539062 5.18710938 0.48578125 5.99921875 0.4140625 6.8359375 C0 9 0 9 -2 11 C-2.33 10.01 -2.66 9.02 -3 8 C-2.34 8 -1.68 8 -1 8 C-1.33 7.01 -1.66 6.02 -2 5 C-1.0625 2.3125 -1.0625 2.3125 0 0 Z " fill="#6B5675" transform="translate(486,228)"/>
<path d="M0 0 C0.33 0 0.66 0 1 0 C0.67 4.29 0.34 8.58 0 13 C-0.33 13 -0.66 13 -1 13 C-1.22245393 11.39773045 -1.42746669 9.79303233 -1.625 8.1875 C-1.74101562 7.29417969 -1.85703125 6.40085938 -1.9765625 5.48046875 C-2 3 -2 3 0 0 Z " fill="#6C5576" transform="translate(425,169)"/>
</svg>
